<svg width="64" height="64" viewBox="0 0 64 64" fill="none" xmlns="http://www.w3.org/2000/svg">
<rect x="1" y="1" width="62" height="62" rx="1" stroke="#F4F6F3" stroke-width="2"/>
<path d="M41.2254 31.4095C38.8698 25.2412 30.4829 24.9086 32.5083 15.9435C32.6584 15.2782 31.9532 14.7642 31.3831 15.1119C25.9368 18.3473 22.0209 24.833 25.3067 33.3296C25.5767 34.025 24.7666 34.6751 24.1814 34.2215C21.4658 32.1503 21.1807 29.172 21.4208 27.0403C21.5108 26.2542 20.4906 25.8762 20.0555 26.5263C19.0352 28.0986 18 30.6385 18 34.4634C18.5701 42.9297 25.6668 45.5301 28.2174 45.8627C31.8632 46.3313 35.8091 45.651 38.6448 43.0356C41.7655 40.1177 42.9057 35.4613 41.2254 31.4095Z" fill="#F4F7F3"/>
</svg>
